<?xml version="1.0" standalone="no"?>
<!DOCTYPE svg PUBLIC "-//W3C//DTD SVG 20010904//EN"
 "http://www.w3.org/TR/2001/REC-SVG-20010904/DTD/svg10.dtd">
<svg version="1.0" xmlns="http://www.w3.org/2000/svg"
 width="1200.000000pt" height="1200.000000pt" viewBox="0 0 1200.000000 1200.000000"
 preserveAspectRatio="xMidYMid meet">
<metadata>
Created by potrace 1.11, written by Peter Selinger 2001-2013
</metadata>
<g transform="translate(0.000000,1200.000000) scale(0.100000,-0.100000)"
fill="#000000" stroke="none">
<path d="M5895 9826 c-27 -13 -614 -352 -1304 -753 -1119 -651 -1257 -734
-1285 -772 l-31 -43 -5 -506 c-3 -279 -5 -991 -5 -1583 l0 -1076 30 -48 c27
-43 49 -58 215 -155 383 -222 1621 -937 2014 -1163 438 -253 458 -262 539
-235 46 15 2568 1478 2606 1512 13 11 32 39 42 62 18 39 19 115 25 1585 5
1189 4 1554 -5 1588 -7 25 -28 60 -49 82 -25 25 -209 137 -552 335 -655 376
-1046 602 -1430 824 -673 389 -626 364 -694 368 -49 2 -71 -2 -111 -22z m190
-3284 c28 -16 158 -90 290 -167 452 -261 660 -381 900 -520 132 -76 242 -141
245 -145 3 -4 29 -21 57 -37 29 -16 50 -32 47 -35 -3 -3 1 -5 8 -4 19 2 168
-86 162 -96 -3 -4 1 -5 9 -2 16 6 60 -43 51 -57 -3 -5 0 -9 5 -9 6 0 11 -20
11 -45 0 -25 -5 -45 -11 -45 -5 0 -7 -5 -4 -10 12 -19 -23 -57 -82 -91 -32
-19 -61 -33 -65 -31 -5 1 -8 -3 -8 -9 0 -6 -7 -8 -16 -5 -8 3 -13 2 -10 -2 7
-12 -122 -84 -136 -76 -6 4 -8 3 -4 -4 6 -10 -101 -79 -116 -74 -5 1 -8 -3 -8
-9 0 -5 -4 -7 -10 -4 -5 3 -10 1 -10 -5 0 -7 -7 -9 -16 -6 -8 3 -13 2 -10 -2
7 -11 -52 -45 -64 -37 -6 4 -9 1 -8 -7 2 -7 -3 -12 -9 -10 -7 1 -13 -2 -13 -6
0 -13 -59 -44 -70 -37 -6 4 -9 1 -8 -7 2 -7 -3 -12 -9 -10 -7 1 -13 -3 -13 -9
0 -5 -4 -7 -10 -4 -5 3 -10 1 -10 -5 0 -7 -7 -9 -16 -6 -8 3 -13 2 -10 -3 6
-8 -93 -67 -106 -63 -5 1 -8 -3 -8 -9 0 -6 -7 -9 -15 -5 -8 3 -14 0 -12 -7 1
-7 -4 -11 -10 -9 -7 1 -13 -2 -13 -8 0 -5 -7 -10 -15 -10 -8 0 -15 -4 -15 -10
0 -5 -5 -10 -11 -10 -5 0 -26 -11 -46 -25 -20 -13 -40 -22 -45 -19 -4 3 -8 1
-8 -5 0 -15 -58 -43 -72 -35 -6 4 -8 3 -4 -4 6 -10 -159 -112 -182 -112 -6 0
-12 -4 -14 -8 -6 -15 -98 -63 -108 -57 -6 4 -9 1 -8 -7 2 -7 -3 -12 -9 -10 -7
1 -13 -3 -13 -10 0 -6 -3 -9 -6 -5 -3 3 -14 -2 -25 -11 -10 -9 -44 -30 -76
-47 -32 -16 -60 -33 -61 -38 -2 -4 -8 -5 -13 -1 -5 3 -9 1 -9 -4 0 -12 -49
-34 -61 -26 -5 3 -8 0 -7 -6 4 -15 -89 -67 -136 -76 -26 -4 -37 -3 -32 4 4 6
-2 8 -16 4 -16 -4 -19 -2 -13 8 5 9 4 11 -3 6 -16 -10 -74 22 -66 36 4 7 3 8
-5 4 -14 -9 -162 74 -154 87 3 6 1 7 -5 3 -11 -7 -114 49 -120 65 -2 5 -8 7
-13 3 -5 -3 -9 0 -9 5 0 6 -5 10 -12 9 -7 -2 -12 2 -13 9 0 6 -4 15 -9 20 -5
5 -6 3 -2 -4 10 -18 -4 -16 -37 5 -15 10 -24 22 -20 27 5 4 2 5 -4 1 -7 -4
-22 -2 -33 4 -18 10 -19 14 -8 28 12 15 11 16 -4 4 -14 -11 -22 -11 -48 3 -17
9 -28 20 -25 25 4 6 -1 7 -11 3 -12 -4 -15 -3 -10 5 4 8 2 10 -8 6 -8 -3 -24
4 -35 15 -12 12 -24 20 -27 20 -10 -2 -74 35 -74 44 0 4 -4 6 -8 3 -5 -3 -18
2 -28 12 -11 9 -26 18 -34 20 -8 2 -21 11 -28 20 -7 9 -15 16 -17 15 -12 -7
-26 -2 -20 7 3 5 0 7 -7 5 -8 -3 -24 4 -36 15 -12 11 -25 20 -29 20 -15 -2
-102 54 -97 62 3 4 -3 5 -12 1 -14 -5 -16 -3 -11 12 6 15 5 16 -8 5 -14 -12
-19 -7 -16 13 1 5 -3 6 -9 2 -13 -8 -192 94 -184 106 3 5 -2 6 -10 3 -9 -3
-16 -1 -16 5 0 6 -4 10 -9 9 -12 -4 -111 54 -111 65 0 4 -4 5 -10 2 -5 -3 -10
-1 -10 4 0 6 -3 10 -7 9 -19 -4 -63 26 -58 40 4 12 3 13 -10 2 -14 -12 -19 -7
-16 13 1 5 -3 6 -9 2 -13 -8 -162 79 -153 90 5 4 2 5 -6 0 -9 -5 -19 -2 -27 9
-7 10 -16 18 -21 19 -4 1 -7 6 -5 10 1 5 -2 6 -8 2 -5 -3 -19 9 -30 27 -30 48
-23 120 16 158 40 39 222 143 236 134 6 -4 8 -3 5 3 -7 11 79 63 573 350 833
485 955 555 974 563 40 16 91 10 141 -18z"/>
<path d="M6290 2935 l0 -95 -74 7 c-68 5 -80 3 -131 -21 -79 -39 -108 -90
-113 -206 -8 -161 40 -250 143 -265 63 -10 110 1 149 35 19 17 36 30 39 30 2
0 7 -13 11 -30 4 -24 11 -30 32 -30 25 0 26 2 20 38 -3 20 -6 171 -6 335 l0
297 -35 0 -35 0 0 -95z m-16 -174 c23 -19 23 -214 0 -271 -39 -97 -169 -93
-210 6 -18 44 -18 165 0 209 22 52 69 77 138 72 31 -2 63 -9 72 -16z"/>
<path d="M7280 2735 c0 -326 4 -356 57 -376 32 -12 109 -7 125 9 6 6 8 21 5
34 -6 21 -11 23 -42 20 -66 -8 -65 -12 -65 314 l0 294 -40 0 -40 0 0 -295z"/>
<path d="M7710 2935 c0 -88 1 -95 20 -95 12 0 21 8 24 23 6 29 26 152 26 160
0 4 -16 7 -35 7 l-35 0 0 -95z"/>
<path d="M4356 2836 c-90 -34 -136 -116 -136 -241 0 -97 22 -166 65 -203 57
-50 163 -55 220 -11 14 12 29 19 32 16 12 -13 -10 -110 -31 -134 -29 -34 -113
-43 -180 -20 l-45 15 -7 -31 c-8 -38 10 -53 73 -63 103 -15 194 11 237 69 20
27 21 42 24 308 l3 279 -28 11 c-47 18 -183 21 -227 5z m157 -65 c25 -10 25
-10 23 -138 -3 -141 -13 -176 -57 -199 -64 -33 -137 -6 -165 62 -20 47 -18
168 3 211 9 20 30 44 47 54 34 21 108 25 149 10z"/>
<path d="M5034 2840 c-12 -4 -30 -20 -42 -34 l-20 -27 -7 31 c-5 25 -11 30
-36 30 l-29 0 0 -240 0 -240 40 0 40 0 0 181 0 181 30 30 c28 27 36 30 76 25
43 -4 44 -3 52 27 7 24 5 32 -7 38 -22 9 -72 8 -97 -2z"/>
<path d="M5485 2845 c-5 -2 -26 -6 -46 -9 -55 -9 -72 -26 -60 -58 l10 -25 52
13 c127 33 189 7 189 -79 l0 -44 -83 -5 c-102 -7 -169 -33 -191 -77 -22 -41
-20 -109 3 -147 46 -75 174 -85 246 -18 29 27 45 21 45 -18 0 -13 8 -18 28
-18 l27 0 -3 197 c-2 118 -7 210 -14 227 -15 37 -77 66 -143 65 -27 0 -54 -2
-60 -4z m145 -308 c0 -51 -21 -84 -66 -103 -74 -31 -144 -2 -144 60 0 57 48
84 148 85 l62 1 0 -43z"/>
<path d="M6747 2836 c-81 -29 -118 -92 -125 -211 -7 -124 25 -207 95 -248 47
-27 129 -33 194 -13 80 23 85 28 70 65 -12 29 -14 29 -36 15 -12 -8 -45 -17
-72 -21 -98 -11 -161 34 -171 123 l-5 43 154 3 154 3 3 50 c6 100 -35 174
-109 195 -47 14 -107 12 -152 -4z m146 -76 c22 -17 47 -72 47 -102 0 -5 -54
-8 -120 -8 -133 0 -133 0 -105 66 25 60 126 85 178 44z"/>
</g>
</svg>
